# xmcd
#
# Track frame offsets:
#  150
#  20146
#  32725
#  58584
#  75314
#  91638
#  108960
#  125025
#  149456
#  167398
#  178910
#  209949
#  221084
#  236078
#  258646
#  277515
#
# Disc length: 3922 seconds
#
# Revision: 0
# Processed by: cddbd v1.5.1PL0 Copyright (c) Steve Scherf et al.
# Submitted via: Collectorz.com_Music_Collector 6.9
#
DISCID=e60f5010
DTITLE=Emery Williams Jr (aka Detroit Junior) - Blues on the Internet
DYEAR=2004
DGENRE=Blues -  Blues Piano
TTITLE0=Call My Job
TTITLE1=Hot Pants Baby
TTITLE2=Weak Spot
TTITLE3=Money Crazy
TTITLE4=Less Violence, More Love
TTITLE5=Love No One But You
TTITLE6=Rockin' After Midnight
TTITLE7=Somebody Better Do Something
TTITLE8=Just You My Love
TTITLE9=When It Comes to Your Love
TTITLE10=Blues on the Internet
TTITLE11=Messin' With the Kid
TTITLE12=Which One of Us You Want to Please
TTITLE13=Man Around the House
TTITLE14=Party All Night Long
TTITLE15=Interview
EXTD=
EXTT0=
EXTT1=
EXTT2=
EXTT3=
EXTT4=
EXTT5=
EXTT6=
EXTT7=
EXTT8=
EXTT9=
EXTT10=
EXTT11=
EXTT12=
EXTT13=
EXTT14=
EXTT15=
PLAYORDER=
